<svg width="79" height="88" viewBox="0 0 79 88" fill="none" xmlns="http://www.w3.org/2000/svg">
<path d="M39.5 0C30.401 0 23 7.51148 23 16.7445C23 29.4853 37.2822 41.8787 37.8911 42.4046C38.8119 43.1985 40.1881 43.1985 41.1089 42.4046C41.7178 41.8837 56 29.4903 56 16.7445C56 7.51148 48.599 0 39.5 0ZM39.5 23.1546C35.8614 23.1546 32.901 20.1877 32.901 16.5411C32.901 12.8945 35.8614 9.92765 39.5 9.92765C43.1386 9.92765 46.099 12.8945 46.099 16.5411C46.099 20.1877 43.1386 23.1546 39.5 23.1546Z" fill="#1F40FF"/>
<rect y="52" width="79" height="36" rx="10" fill="#32323D"/>
<path d="M24.1875 64.2969C24.9375 64.2969 25.6406 64.4323 26.2969 64.7031C26.9531 64.9635 27.5312 65.3385 28.0312 65.8281C28.5417 66.3073 28.9375 66.8802 29.2188 67.5469C29.5104 68.2135 29.6562 68.9531 29.6562 69.7656C29.6562 70.5781 29.5104 71.3177 29.2188 71.9844C28.9375 72.651 28.5417 73.2292 28.0312 73.7188C27.5312 74.1979 26.9531 74.5729 26.2969 74.8438C25.6406 75.1042 24.9375 75.2344 24.1875 75.2344C23.4375 75.2344 22.7292 75.1042 22.0625 74.8438C21.4062 74.5729 20.8229 74.1979 20.3125 73.7188C19.8125 73.2292 19.4167 72.651 19.125 71.9844C18.8438 71.3177 18.7031 70.5781 18.7031 69.7656C18.7031 68.9531 18.8438 68.2135 19.125 67.5469C19.4167 66.8802 19.8125 66.3073 20.3125 65.8281C20.8229 65.3385 21.4062 64.9635 22.0625 64.7031C22.7292 64.4323 23.4375 64.2969 24.1875 64.2969ZM24.1875 66.3438C23.5625 66.3438 23 66.4948 22.5 66.7969C22.0104 67.099 21.625 67.5052 21.3438 68.0156C21.0625 68.526 20.9219 69.1094 20.9219 69.7656C20.9219 70.4115 21.0625 70.9948 21.3438 71.5156C21.625 72.026 22.0104 72.4323 22.5 72.7344C23 73.026 23.5625 73.1719 24.1875 73.1719C24.8125 73.1719 25.3698 73.026 25.8594 72.7344C26.349 72.4323 26.7344 72.026 27.0156 71.5156C27.2969 70.9948 27.4375 70.4115 27.4375 69.7656C27.4375 69.1094 27.2969 68.526 27.0156 68.0156C26.7344 67.5052 26.349 67.099 25.8594 66.7969C25.3698 66.4948 24.8125 66.3438 24.1875 66.3438ZM35.8831 67.1094V68.7656H33.8363V75H31.8519V68.7656H30.6488V67.1094H31.8519V66.4062C31.8519 65.8021 31.9769 65.2865 32.2269 64.8594C32.4873 64.4219 32.8258 64.0885 33.2425 63.8594C33.6592 63.6302 34.1175 63.5156 34.6175 63.5156C34.9508 63.5156 35.2425 63.5521 35.4925 63.625C35.7425 63.6979 35.9613 63.7969 36.1488 63.9219V65.5781C35.805 65.3698 35.4092 65.2708 34.9613 65.2812C34.6488 65.2917 34.3831 65.3958 34.1644 65.5938C33.9456 65.7812 33.8363 66.0938 33.8363 66.5312V67.1094H35.8831ZM41.8288 67.1094V68.7656H39.7819V75H37.7975V68.7656H36.5944V67.1094H37.7975V66.4062C37.7975 65.8021 37.9225 65.2865 38.1725 64.8594C38.4329 64.4219 38.7715 64.0885 39.1881 63.8594C39.6048 63.6302 40.0631 63.5156 40.5631 63.5156C40.8965 63.5156 41.1881 63.5521 41.4381 63.625C41.6881 63.6979 41.9069 63.7969 42.0944 63.9219V65.5781C41.7506 65.3698 41.3548 65.2708 40.9069 65.2812C40.5944 65.2917 40.3288 65.3958 40.11 65.5938C39.8913 65.7812 39.7819 66.0938 39.7819 66.5312V67.1094H41.8288ZM44.8056 63C45.1806 63 45.5035 63.1354 45.7744 63.4062C46.0452 63.6667 46.1806 63.9792 46.1806 64.3438C46.1806 64.6979 46.0452 65.0104 45.7744 65.2812C45.5035 65.5521 45.1806 65.6875 44.8056 65.6875C44.4306 65.6875 44.1077 65.5521 43.8369 65.2812C43.5765 65.0104 43.4463 64.6979 43.4463 64.3438C43.4463 63.9792 43.5765 63.6667 43.8369 63.4062C44.1077 63.1354 44.4306 63 44.8056 63ZM45.9619 67.1094V75H43.9775V68.7969H42.7119V67.1094H45.9619ZM51.7356 66.9062C52.319 66.9062 52.7981 67 53.1731 67.1875C53.5481 67.375 53.845 67.5573 54.0637 67.7344V69.5625C53.7929 69.3646 53.4856 69.1979 53.1419 69.0625C52.8085 68.9271 52.3971 68.8594 51.9075 68.8594C51.5117 68.8594 51.1419 68.9583 50.7981 69.1562C50.4648 69.3542 50.1992 69.6198 50.0012 69.9531C49.8033 70.2865 49.7044 70.6667 49.7044 71.0938C49.7044 71.7396 49.9127 72.2708 50.3294 72.6875C50.746 73.1042 51.2721 73.3125 51.9075 73.3125C52.3971 73.3125 52.8085 73.25 53.1419 73.125C53.4856 72.9896 53.7929 72.8229 54.0637 72.625V74.4375C53.845 74.625 53.5481 74.8073 53.1731 74.9844C52.7981 75.151 52.319 75.2344 51.7356 75.2344C50.9335 75.2344 50.22 75.0469 49.595 74.6719C48.9804 74.2865 48.4908 73.7812 48.1262 73.1562C47.7721 72.5208 47.595 71.8333 47.595 71.0938C47.595 70.5417 47.694 70.0156 47.8919 69.5156C48.1002 69.0156 48.3919 68.5729 48.7669 68.1875C49.1419 67.7917 49.5794 67.4792 50.0794 67.25C50.5898 67.0208 51.1419 66.9062 51.7356 66.9062ZM58.9625 66.9062C59.7333 66.9062 60.3948 67.0729 60.9469 67.4062C61.5094 67.7396 61.9365 68.2031 62.2281 68.7969C62.5302 69.3802 62.6813 70.0573 62.6813 70.8281V71.6719H56.9625C57.0667 72.2031 57.3271 72.6302 57.7438 72.9531C58.1604 73.276 58.6708 73.4375 59.275 73.4375C59.8479 73.4375 60.3688 73.3229 60.8375 73.0938C61.3063 72.8646 61.6813 72.6302 61.9625 72.3906L61.9469 74.2344C61.6969 74.4531 61.3219 74.6771 60.8219 74.9062C60.3323 75.125 59.7906 75.2344 59.1969 75.2344C58.4156 75.2344 57.7021 75.0573 57.0563 74.7031C56.4208 74.349 55.9104 73.8646 55.525 73.25C55.15 72.6354 54.9625 71.9323 54.9625 71.1406C54.9625 70.3698 55.1344 69.6667 55.4781 69.0312C55.8219 68.3958 56.2958 67.8854 56.9 67.5C57.5042 67.1042 58.1917 66.9062 58.9625 66.9062ZM58.9156 68.6406C58.426 68.6406 58.0146 68.7917 57.6813 69.0938C57.3479 69.3958 57.1188 69.8021 56.9938 70.3125H60.775C60.7333 69.75 60.525 69.3333 60.15 69.0625C59.775 68.7812 59.3635 68.6406 58.9156 68.6406Z" fill="white"/>
</svg>
