<?xml version="1.0" standalone="no"?>
<!DOCTYPE svg PUBLIC "-//W3C//DTD SVG 20010904//EN"
 "http://www.w3.org/TR/2001/REC-SVG-20010904/DTD/svg10.dtd">
<svg version="1.0" xmlns="http://www.w3.org/2000/svg"
 width="1908.000000pt" height="1908.000000pt" viewBox="0 0 1908.000000 1908.000000"
 preserveAspectRatio="xMidYMid meet">
<metadata>
Created by potrace 1.14, written by Peter Selinger 2001-2017
</metadata>
<g transform="translate(0.000000,1908.000000) scale(0.100000,-0.100000)"
fill="#000000" stroke="none">
<path d="M8461 17947 c-25 -51 -155 -315 -289 -587 -401 -813 -596 -1207 -764
-1550 -87 -179 -166 -338 -175 -355 -9 -16 -20 -37 -24 -45 -5 -8 -81 -163
-170 -345 -151 -308 -284 -579 -734 -1490 -98 -198 -245 -497 -327 -665 -82
-168 -153 -312 -158 -320 -6 -8 -14 -24 -19 -35 -11 -25 -510 -1037 -911
-1850 -117 -236 -290 -587 -385 -780 -282 -573 -501 -1016 -711 -1440 -109
-220 -198 -402 -199 -405 -1 -3 -88 -180 -194 -395 -106 -214 -260 -527 -343
-695 -82 -168 -153 -312 -158 -320 -6 -8 -14 -25 -20 -38 -5 -12 -87 -179
-181 -370 -276 -559 -539 -1093 -539 -1097 0 -2 -16 -31 -35 -64 -19 -34 -34
-64 -35 -66 0 -7 -186 -386 -450 -920 -342 -692 -775 -1571 -1070 -2170 -81
-165 -209 -424 -284 -575 -75 -150 -138 -281 -141 -290 -5 -15 88 -16 1062
-17 588 -1 1660 -2 2383 -3 723 -1 1322 1 1330 5 8 4 54 57 102 118 91 117
337 416 387 471 16 17 48 54 71 81 23 28 68 79 100 115 32 36 67 74 77 86 199
230 722 759 1043 1054 69 63 127 117 130 120 3 3 37 32 75 65 39 33 72 63 75
66 23 25 357 305 530 444 337 269 680 523 1004 743 252 171 971 622 992 622 2
0 21 10 42 23 38 24 79 47 262 147 226 123 293 158 520 271 259 129 353 174
510 244 58 26 128 57 155 70 171 78 516 219 735 301 80 30 154 59 165 64 22
10 146 53 385 135 136 46 245 81 564 181 200 62 789 217 949 249 10 3 26 6 35
9 9 3 28 7 42 10 14 2 55 11 91 20 37 8 78 17 90 20 13 2 68 14 123 25 54 12
108 23 120 25 180 33 307 56 334 61 17 3 44 7 60 10 55 9 278 45 317 50 22 4
51 8 65 11 14 2 45 6 70 9 25 3 79 11 120 17 89 12 103 14 195 23 39 4 79 9
90 11 11 2 49 6 85 10 36 3 76 7 90 9 25 4 112 12 205 20 141 12 204 17 245
20 25 2 92 7 150 10 58 3 134 8 170 10 498 30 1347 25 1850 -10 47 -3 123 -8
170 -11 47 -3 103 -7 125 -9 22 -2 76 -7 120 -10 44 -4 106 -10 137 -14 31 -4
55 -4 52 1 -3 4 -12 8 -20 8 -8 0 -22 5 -32 10 -33 19 -460 174 -677 245 -255
83 -389 125 -401 125 -8 0 -22 4 -32 10 -20 11 -146 47 -417 120 -104 27 -206
55 -225 60 -41 11 -118 31 -140 35 -8 2 -53 12 -100 23 -95 23 -291 68 -330
76 -327 65 -482 96 -510 100 -19 3 -45 8 -56 10 -12 2 -39 7 -60 10 -22 4 -46
8 -54 11 -8 2 -35 6 -60 9 -25 4 -56 8 -70 11 -26 5 -214 33 -263 40 -103 15
-188 26 -222 30 -22 3 -56 7 -75 10 -19 2 -80 9 -135 15 -55 6 -116 13 -135
15 -38 5 -112 12 -200 21 -30 2 -75 7 -100 9 -25 3 -85 7 -135 10 -49 3 -108
8 -130 10 -22 2 -92 7 -155 10 -63 3 -142 8 -175 10 -307 22 -1244 22 -1550 0
-22 -1 -103 -6 -180 -9 -77 -4 -151 -9 -165 -11 -14 -2 -70 -7 -125 -10 -55
-4 -113 -8 -130 -10 -16 -1 -66 -6 -110 -10 -44 -3 -91 -8 -104 -10 -13 -2
-58 -7 -100 -10 -42 -4 -83 -8 -91 -10 -8 -2 -44 -7 -80 -10 -36 -4 -74 -9
-85 -11 -11 -2 -45 -6 -76 -9 -31 -3 -64 -7 -75 -9 -10 -2 -44 -7 -74 -11 -30
-4 -64 -9 -75 -11 -11 -2 -38 -6 -60 -9 -22 -3 -51 -7 -65 -9 -14 -2 -46 -7
-71 -10 -25 -4 -57 -9 -70 -11 -169 -29 -270 -47 -299 -51 -30 -5 -459 -90
-500 -99 -8 -2 -67 -15 -130 -29 -195 -43 -358 -83 -540 -131 -96 -25 -182
-47 -190 -49 -8 -2 -42 -12 -75 -22 -33 -10 -65 -19 -71 -20 -47 -8 -692 -210
-749 -234 -11 -4 -69 -25 -130 -45 -60 -21 -186 -66 -280 -101 -93 -35 -171
-61 -174 -59 -2 3 20 58 49 122 29 65 61 136 70 158 43 96 230 515 253 565 13
30 40 91 60 135 19 44 46 105 60 135 13 30 34 75 45 100 11 25 54 124 97 220
42 96 90 203 106 238 16 35 29 65 29 67 0 2 15 36 34 77 18 40 45 100 60 132
14 32 28 57 30 55 2 -2 104 -229 226 -504 122 -275 225 -504 230 -508 4 -5 52
3 106 18 55 15 106 28 114 30 8 2 116 28 240 58 124 31 252 61 285 68 33 7 65
14 70 15 30 7 164 36 185 40 14 3 66 13 116 24 50 11 106 21 125 24 19 2 81
14 139 25 146 28 221 41 325 56 22 3 65 10 95 15 30 6 78 12 105 15 28 3 57 8
65 10 8 2 42 7 75 11 33 3 62 8 65 9 3 2 34 6 70 10 36 4 72 8 80 10 8 2 49 6
90 10 41 4 77 9 80 10 3 2 43 6 89 10 46 4 91 8 101 10 9 2 53 6 96 10 43 4
90 8 104 10 14 3 66 7 115 10 50 4 113 8 140 11 107 9 264 19 490 29 50 2 205
7 345 10 140 4 256 8 257 9 2 1 -46 101 -106 222 -60 120 -183 370 -274 554
-90 184 -255 517 -364 740 -110 223 -276 558 -368 745 -321 652 -519 1053
-708 1435 -223 452 -489 992 -719 1460 -229 464 -499 1010 -738 1495 -111 226
-278 563 -370 750 -92 187 -248 504 -348 705 -99 201 -259 527 -357 725 -98
198 -195 396 -217 440 -22 44 -43 90 -47 102 -5 18 -14 5 -50 -70z"/>
<path d="M14190 6295 c-30 -8 -69 -16 -86 -19 -55 -10 -415 -94 -559 -131 -77
-20 -147 -38 -155 -40 -40 -9 -354 -99 -505 -145 -274 -83 -884 -292 -990
-339 -11 -5 -92 -37 -180 -72 -200 -78 -451 -184 -671 -284 -238 -108 -684
-327 -684 -336 0 -7 18 -50 75 -174 43 -94 88 -194 135 -300 29 -66 63 -142
75 -170 12 -27 86 -194 164 -370 78 -176 151 -338 161 -360 11 -22 46 -101 79
-175 32 -74 70 -160 84 -190 13 -30 78 -174 142 -320 65 -146 128 -287 140
-315 30 -65 119 -265 245 -550 34 -77 79 -178 100 -225 93 -207 143 -318 225
-505 49 -110 92 -204 96 -209 4 -5 585 -8 1336 -6 730 1 1804 2 2386 3 581 0
1057 4 1057 9 0 8 -87 185 -500 1023 -111 226 -276 559 -365 740 -89 182 -256
519 -370 750 -193 392 -301 609 -698 1415 -590 1199 -646 1310 -664 1309 -10
0 -43 -7 -73 -14z"/>
</g>
</svg>
