<svg width="540" height="196" viewBox="0 0 540 196" fill="none" xmlns="http://www.w3.org/2000/svg">
<path d="M35.9997 135.2C29.9997 135.2 24.6397 133.72 19.9197 130.76C15.1997 127.8 11.4797 123.84 8.75969 118.88C6.03969 113.92 4.67969 108.48 4.67969 102.56C4.67969 96.7199 5.99969 91.3599 8.63969 86.4799C11.3597 81.5999 15.0797 77.7199 19.7997 74.8399C24.5197 71.8799 29.8797 70.3999 35.8797 70.3999C42.0397 70.3999 47.4397 71.8799 52.0797 74.8399C56.7197 77.7999 60.3197 81.7199 62.8797 86.5999C65.5197 91.3999 66.8397 96.6799 66.8397 102.44C66.8397 103.72 66.7997 104.8 66.7197 105.68H13.1997C13.5997 110.16 14.8797 114.16 17.0397 117.68C19.1997 121.12 21.9597 123.88 25.3197 125.96C28.6797 127.96 32.3597 128.96 36.3597 128.96C40.4397 128.96 44.2797 127.92 47.8797 125.84C51.4797 123.76 54.0397 121.04 55.5597 117.68L62.6397 119.6C61.3597 122.64 59.3597 125.36 56.6397 127.76C53.9997 130.08 50.9197 131.92 47.3997 133.28C43.8797 134.56 40.0797 135.2 35.9997 135.2ZM12.9597 99.7999H59.1597C58.8397 95.3199 57.5997 91.3599 55.4397 87.9199C53.2797 84.3999 50.5197 81.6799 47.1597 79.7599C43.7997 77.7599 40.0797 76.7599 35.9997 76.7599C31.9197 76.7599 28.1997 77.7599 24.8397 79.7599C21.4797 81.6799 18.7197 84.3999 16.5597 87.9199C14.4797 91.3599 13.2797 95.3199 12.9597 99.7999Z" fill="white"/>
<path d="M79.0056 71.4799L97.3656 95.9599L98.3256 97.7599L99.2856 95.9599L117.526 71.4799H126.766L103.006 102.92L126.766 134H117.526L99.2856 109.64L98.3256 107.96L97.3656 109.64L79.1256 134H69.8856L93.5256 102.92L69.8856 71.4799H79.0056Z" fill="white"/>
<path d="M169.474 135.2C164.274 135.2 159.594 133.84 155.434 131.12C151.354 128.4 148.114 125.04 145.714 121.04V159.56H137.554V71.4799H144.874V83.5999C147.354 79.6799 150.634 76.5199 154.714 74.1199C158.874 71.6399 163.354 70.3999 168.154 70.3999C172.474 70.3999 176.434 71.3199 180.034 73.1599C183.634 74.9199 186.754 77.3199 189.394 80.3599C192.114 83.3999 194.194 86.8799 195.634 90.7999C197.074 94.6399 197.794 98.6399 197.794 102.8C197.794 108.64 196.594 114.04 194.194 119C191.874 123.88 188.554 127.8 184.234 130.76C179.994 133.72 175.074 135.2 169.474 135.2ZM167.194 128C171.754 128 175.674 126.8 178.954 124.4C182.314 121.92 184.914 118.76 186.754 114.92C188.594 111.08 189.514 107.04 189.514 102.8C189.514 98.3199 188.474 94.1599 186.394 90.3199C184.314 86.4799 181.514 83.3999 177.994 81.0799C174.554 78.7599 170.634 77.5999 166.234 77.5999C163.514 77.5999 160.634 78.3199 157.594 79.7599C154.634 81.1199 151.994 82.9999 149.674 85.3999C147.434 87.7199 146.114 90.2799 145.714 93.0799V112.28C147.554 116.68 150.434 120.4 154.354 123.44C158.274 126.48 162.554 128 167.194 128Z" fill="white"/>
<path d="M242.817 78.6799C237.377 78.8399 232.577 80.3599 228.417 83.2399C224.337 86.1199 221.457 90.0799 219.777 95.1199V134H211.617V71.4799H219.297V86.4799C221.457 82.0799 224.297 78.5199 227.817 75.7999C231.417 73.0799 235.217 71.5599 239.217 71.2399C240.017 71.1599 240.697 71.1199 241.257 71.1199C241.817 71.1199 242.337 71.1599 242.817 71.2399V78.6799Z" fill="white"/>
<path d="M278.812 135.2C272.812 135.2 267.452 133.72 262.732 130.76C258.012 127.8 254.292 123.84 251.572 118.88C248.852 113.92 247.492 108.48 247.492 102.56C247.492 96.7199 248.812 91.3599 251.452 86.4799C254.172 81.5999 257.892 77.7199 262.612 74.8399C267.332 71.8799 272.692 70.3999 278.692 70.3999C284.852 70.3999 290.252 71.8799 294.892 74.8399C299.532 77.7999 303.132 81.7199 305.692 86.5999C308.332 91.3999 309.652 96.6799 309.652 102.44C309.652 103.72 309.612 104.8 309.532 105.68H256.012C256.412 110.16 257.692 114.16 259.852 117.68C262.012 121.12 264.772 123.88 268.132 125.96C271.492 127.96 275.172 128.96 279.172 128.96C283.252 128.96 287.092 127.92 290.692 125.84C294.292 123.76 296.852 121.04 298.372 117.68L305.452 119.6C304.172 122.64 302.172 125.36 299.452 127.76C296.812 130.08 293.732 131.92 290.212 133.28C286.692 134.56 282.892 135.2 278.812 135.2ZM255.772 99.7999H301.972C301.652 95.3199 300.412 91.3599 298.252 87.9199C296.092 84.3999 293.332 81.6799 289.972 79.7599C286.612 77.7599 282.892 76.7599 278.812 76.7599C274.732 76.7599 271.012 77.7599 267.652 79.7599C264.292 81.6799 261.532 84.3999 259.372 87.9199C257.292 91.3599 256.092 95.3199 255.772 99.7999Z" fill="white"/>
<path d="M342.762 135.2C337.642 135.2 332.882 134.36 328.482 132.68C324.162 130.92 320.362 128.36 317.082 125L320.442 119.24C323.962 122.52 327.482 124.92 331.002 126.44C334.602 127.88 338.402 128.6 342.402 128.6C347.202 128.6 351.122 127.64 354.162 125.72C357.282 123.72 358.842 120.88 358.842 117.2C358.842 114.72 358.082 112.84 356.562 111.56C355.122 110.2 353.002 109.12 350.202 108.32C347.482 107.52 344.202 106.6 340.362 105.56C336.042 104.36 332.402 103.12 329.442 101.84C326.562 100.48 324.362 98.7999 322.842 96.7999C321.402 94.7199 320.682 92.0399 320.682 88.7599C320.682 84.7599 321.682 81.3999 323.682 78.6799C325.762 75.9599 328.562 73.9199 332.082 72.5599C335.682 71.1199 339.682 70.3999 344.082 70.3999C348.882 70.3999 353.122 71.1599 356.802 72.6799C360.482 74.1999 363.482 76.3199 365.802 79.0399L361.842 84.5599C359.682 81.9999 357.002 80.1199 353.802 78.9199C350.682 77.6399 347.282 76.9999 343.602 76.9999C341.042 76.9999 338.602 77.3599 336.282 78.0799C333.962 78.7199 332.042 79.8399 330.522 81.4399C329.082 82.9599 328.362 85.0799 328.362 87.7999C328.362 91.1599 329.602 93.4799 332.082 94.7599C334.562 96.0399 338.322 97.3999 343.362 98.8399C348.082 100.12 352.202 101.4 355.722 102.68C359.242 103.96 361.962 105.68 363.882 107.84C365.802 109.92 366.762 112.84 366.762 116.6C366.762 122.44 364.562 127 360.162 130.28C355.762 133.56 349.962 135.2 342.762 135.2Z" fill="white"/>
<path d="M400.77 135.2C395.65 135.2 390.89 134.36 386.49 132.68C382.17 130.92 378.37 128.36 375.09 125L378.45 119.24C381.97 122.52 385.49 124.92 389.01 126.44C392.61 127.88 396.41 128.6 400.41 128.6C405.21 128.6 409.13 127.64 412.17 125.72C415.29 123.72 416.85 120.88 416.85 117.2C416.85 114.72 416.09 112.84 414.57 111.56C413.13 110.2 411.01 109.12 408.21 108.32C405.49 107.52 402.21 106.6 398.37 105.56C394.05 104.36 390.41 103.12 387.45 101.84C384.57 100.48 382.37 98.7999 380.85 96.7999C379.41 94.7199 378.69 92.0399 378.69 88.7599C378.69 84.7599 379.69 81.3999 381.69 78.6799C383.77 75.9599 386.57 73.9199 390.09 72.5599C393.69 71.1199 397.69 70.3999 402.09 70.3999C406.89 70.3999 411.13 71.1599 414.81 72.6799C418.49 74.1999 421.49 76.3199 423.81 79.0399L419.85 84.5599C417.69 81.9999 415.01 80.1199 411.81 78.9199C408.69 77.6399 405.29 76.9999 401.61 76.9999C399.05 76.9999 396.61 77.3599 394.29 78.0799C391.97 78.7199 390.05 79.8399 388.53 81.4399C387.09 82.9599 386.37 85.0799 386.37 87.7999C386.37 91.1599 387.61 93.4799 390.09 94.7599C392.57 96.0399 396.33 97.3999 401.37 98.8399C406.09 100.12 410.21 101.4 413.73 102.68C417.25 103.96 419.97 105.68 421.89 107.84C423.81 109.92 424.77 112.84 424.77 116.6C424.77 122.44 422.57 127 418.17 130.28C413.77 133.56 407.97 135.2 400.77 135.2Z" fill="white"/>
<path d="M437.057 134V122.24H444.138V134H437.057Z" fill="white"/>
<path d="M461.832 58.3999V46.3999H469.992V58.3999H461.832ZM451.632 155.72C448.992 155.72 446.512 155.36 444.192 154.64C441.792 153.92 439.712 152.72 437.952 151.04L441.912 145.52C443.192 146.64 444.592 147.4 446.112 147.8C447.632 148.2 449.152 148.4 450.672 148.4C453.472 148.4 456.032 147.32 458.352 145.16C460.672 143.08 461.832 140.44 461.832 137.24V71.4799H469.992V136.76C469.992 140.44 469.112 143.72 467.352 146.6C465.592 149.48 463.312 151.72 460.512 153.32C457.712 154.92 454.752 155.72 451.632 155.72Z" fill="white"/>
<path d="M508.465 135.2C503.345 135.2 498.585 134.36 494.185 132.68C489.865 130.92 486.065 128.36 482.785 125L486.145 119.24C489.665 122.52 493.185 124.92 496.705 126.44C500.305 127.88 504.105 128.6 508.105 128.6C512.905 128.6 516.825 127.64 519.865 125.72C522.985 123.72 524.545 120.88 524.545 117.2C524.545 114.72 523.785 112.84 522.265 111.56C520.825 110.2 518.705 109.12 515.905 108.32C513.185 107.52 509.905 106.6 506.065 105.56C501.745 104.36 498.105 103.12 495.145 101.84C492.265 100.48 490.065 98.7999 488.545 96.7999C487.105 94.7199 486.385 92.0399 486.385 88.7599C486.385 84.7599 487.385 81.3999 489.385 78.6799C491.465 75.9599 494.265 73.9199 497.785 72.5599C501.385 71.1199 505.385 70.3999 509.785 70.3999C514.585 70.3999 518.825 71.1599 522.505 72.6799C526.185 74.1999 529.185 76.3199 531.505 79.0399L527.545 84.5599C525.385 81.9999 522.705 80.1199 519.505 78.9199C516.385 77.6399 512.985 76.9999 509.305 76.9999C506.745 76.9999 504.305 77.3599 501.985 78.0799C499.665 78.7199 497.745 79.8399 496.225 81.4399C494.785 82.9599 494.065 85.0799 494.065 87.7999C494.065 91.1599 495.305 93.4799 497.785 94.7599C500.265 96.0399 504.025 97.3999 509.065 98.8399C513.785 100.12 517.905 101.4 521.425 102.68C524.945 103.96 527.665 105.68 529.585 107.84C531.505 109.92 532.465 112.84 532.465 116.6C532.465 122.44 530.265 127 525.865 130.28C521.465 133.56 515.665 135.2 508.465 135.2Z" fill="white"/>
</svg>
